<?xml version="1.0" encoding="UTF-8" standalone="no"?>
<!-- Created with Inkscape (http://www.inkscape.org/) -->

<svg
   version="1.1"
   id="svg2"
   width="1152"
   height="1152"
   viewBox="0 0 1152 1152"
   sodipodi:docname="ProjectSarosLogo.ai"
   xmlns:inkscape="http://www.inkscape.org/namespaces/inkscape"
   xmlns:sodipodi="http://sodipodi.sourceforge.net/DTD/sodipodi-0.dtd"
   xmlns="http://www.w3.org/2000/svg"
   xmlns:svg="http://www.w3.org/2000/svg">
  <defs
     id="defs6">
    <clipPath
       clipPathUnits="userSpaceOnUse"
       id="clipPath16">
      <path
         d="M 0,864 H 864 V 0 H 0 Z"
         id="path14" />
    </clipPath>
  </defs>
  <sodipodi:namedview
     id="namedview4"
     pagecolor="#ffffff"
     bordercolor="#000000"
     borderopacity="0.25"
     inkscape:showpageshadow="2"
     inkscape:pageopacity="0.0"
     inkscape:pagecheckerboard="0"
     inkscape:deskcolor="#d1d1d1" />
  <g
     id="g8"
     inkscape:groupmode="layer"
     inkscape:label="ProjectSarosLogo"
     transform="matrix(1.3333333,0,0,-1.3333333,0,1152)">
    <g
       id="g10">
      <g
         id="g12"
         clip-path="url(#clipPath16)">
        <g
           id="g18"
           transform="translate(309.8521,605.7778)">
          <path
             d="m 0,0 c 0.082,-16.96 -2.266,-56.637 -27.408,-97.778 -32.592,-53.333 -48.463,-52.937 -62.963,-61.481 14.054,-20.647 38.454,-60.881 42.963,-102.963 8.889,-82.963 -71.961,-201.499 -83.703,-212.593 84.384,70.572 136.786,100.405 195.555,100.741 37.037,0.211 47.719,-22.442 60,-34.815 10.326,11.518 57.628,54.485 109.63,65.926 37.037,8.148 59.065,-0.012 74.074,-4.445 -9.46,52.593 -2.963,114.816 20,144.445 15.689,20.245 39.172,25.701 52.593,28.889 -57.037,22.963 -63.755,61.369 -64.445,78.518 -3.117,77.448 36.458,154.617 122.963,247.408 C 308.148,48.148 253.333,11.646 213.333,12.593 192.851,13.077 178.518,20 167.407,34.815 157.225,24.495 135.101,4.902 100.741,-5.185 56.932,-18.047 24.753,-13.422 0,0 Z"
             style="fill:none;stroke:#231f20;stroke-width:4;stroke-linecap:butt;stroke-linejoin:miter;stroke-miterlimit:10;stroke-dasharray:none;stroke-opacity:1"
             id="path20" />
        </g>
        <g
           id="g22"
           transform="translate(591.1025,413.0703)">
          <path
             d="m 0,0 c 0,-85.438 -69.261,-154.7 -154.699,-154.7 -85.439,0 -154.7,69.262 -154.7,154.7 0,85.438 69.261,154.699 154.7,154.699 C -69.261,154.699 0,85.438 0,0"
             style="fill:#231f20;fill-opacity:1;fill-rule:nonzero;stroke:none"
             id="path24" />
        </g>
        <g
           id="g26"
           transform="translate(391.417,361.4531)">
          <path
             d="m 0,0 c -1.291,-0.694 -2.878,-0.48 -3.902,0.514 -0.941,0.913 -1.244,2.329 -0.762,3.583 2.596,4.233 6.01,9.102 10.453,14.129 4.256,4.813 8.479,8.667 12.222,11.69 1.291,0.638 2.838,0.402 3.846,-0.575 0.927,-0.899 1.247,-2.276 0.818,-3.521 C 20.096,21.704 16.792,17.053 12.598,12.246 8.219,7.229 3.87,3.189 0,0 m 32.953,25.135 v 0 l 64.521,73.469 c 9.837,13.721 16.665,27.501 20.27,40.174 -11.746,-5.523 -24.28,-14.293 -36.512,-25.911 L 16.712,39.398 -5.333,36.084 -15.598,24.396 -14.446,6.625 -15.75,5.14 c -0.629,-0.717 -0.559,-1.808 0.158,-2.438 l 16.329,-14.34 c 0.716,-0.629 1.807,-0.558 2.436,0.159 l 1.305,1.485 17.772,1.152 10.264,11.689 z"
             style="fill:#ffffff;fill-opacity:1;fill-rule:nonzero;stroke:none"
             id="path28" />
        </g>
        <g
           id="g30"
           transform="translate(370.1938,354.1279)">
          <path
             d="M 0,0 C 2.985,-4.245 7.39,-7.965 12.743,-11.191 3.161,-22.103 -10.991,-31.351 -20.541,-36.241 -17.748,-25.417 -9.582,-10.911 0,0"
             style="fill:#ffffff;fill-opacity:1;fill-rule:nonzero;stroke:none"
             id="path32" />
        </g>
        <g
           id="g34"
           transform="translate(766.7373,762.6221)">
          <path
             d="m 0,0 c -82.661,-90.258 -133.494,-180.01 -130.596,-251.998 0.862,-21.431 11.656,-50.91 58.187,-69.643 l 29.164,-11.742 -30.882,-7.335 c -12.451,-2.957 -33.291,-7.906 -46.705,-25.216 -20.046,-25.864 -27.642,-83.291 -18.063,-136.547 l 2.87,-15.954 -15.545,4.591 c -1.092,0.323 -2.221,0.665 -3.389,1.019 -9.544,2.891 -21.422,6.49 -37.655,6.49 -8.841,0 -18.278,-1.09 -28.049,-3.24 -49.648,-10.922 -94.925,-52.34 -104.332,-62.834 l -7.076,-7.894 -7.469,7.525 c -2.544,2.564 -4.869,5.329 -7.329,8.256 -9.755,11.604 -19.842,23.605 -45.059,23.605 l -0.456,-0.002 c -51.74,-0.296 -116.782,-39.002 -199.964,-107.756 -3.862,-3.192 -9.573,-2.718 -12.845,1.077 -2.91,3.375 -2.993,8.351 -0.182,11.808 11.938,14.684 40.872,53.437 58.011,87.927 17.568,35.351 37.576,86.209 33.127,127.731 -3.967,37.025 -24.641,73.946 -41.286,98.401 l -6.007,8.824 9.197,5.42 c 2.896,1.706 5.758,3.065 8.525,4.378 11.994,5.694 25.587,12.147 50.981,53.702 22.779,37.273 26.03,73.962 25.941,92.514 l -0.081,16.892 14.849,-8.052 c 14.366,-7.789 29.977,-11.576 47.726,-11.576 13.882,0 29.167,2.421 45.43,7.195 29.599,8.69 50.251,25.15 62.364,37.428 l 8.154,8.265 6.966,-9.288 c 9.271,-12.361 20.684,-17.811 38.163,-18.224 0.424,-0.011 0.85,-0.016 1.279,-0.016 37.686,0 113.354,55.796 229.612,147.615 3.641,2.876 8.863,2.574 12.144,-0.707 C 3.179,9.18 3.304,3.607 0,0 M -766.737,-759.086 H 93.727 v 860.464 h -860.464 z"
             style="fill:#231f20;fill-opacity:1;fill-rule:nonzero;stroke:none"
             id="path36" />
        </g>
      </g>
    </g>
  </g>
</svg>
